<svg xmlns="http://www.w3.org/2000/svg" width="144" height="38" viewBox="0 0 144 38"><g fill="#FFF"><path d="M21.282 31.405h-3.469V1.922h5.368l3.593 24.322c-.537-5.781-1.239-15.113-1.239-20.027V1.922h3.468v29.483h-4.914l-3.304-23.62c.289 5.286.496 11.603.496 15.155v8.465zM34.949 18.604v9.084h.661c1.239 0 1.61-.702 1.61-2.106v-4.996c0-1.445-.454-1.982-1.776-1.982h-.495zm0-12.965v9.745h.496c1.404 0 1.776-.537 1.776-2.147V7.621c0-1.363-.413-1.982-1.61-1.982h-.662zm-3.964 25.766V1.922h4.914c3.262 0 5.286 1.776 5.286 5.905v4.336c0 2.684-.826 4.047-1.982 4.749 1.156.743 1.982 2.065 1.982 4.336v4.294c0 4.047-2.147 5.864-5.286 5.864h-4.914zM46.3 22.527h2.106l-.33-5.409c-.124-2.147-.454-8.961-.702-12.636h-.165l-.578 12.636-.331 5.409zm2.313 3.345h-2.478l-.33 5.533H41.8l2.89-29.483h5.616l2.808 29.483h-4.17l-.331-5.533z"/></g><path fill="#FFF" d="M61.323 22.552h2.109l-.331-5.418c-.124-2.151-.455-8.975-.703-12.656h-.165l-.579 12.656-.331 5.418zm2.316 3.351h-2.482l-.331 5.542h-4.012L59.71 1.914h5.625l2.813 29.531H63.97l-.331-5.542z"/><g fill="#FFF"><path d="M79.392 25.924c0 4.628-1.818 5.744-4.959 5.744-3.099 0-4.959-1.116-4.959-5.744V13.775c0-4.669 1.859-5.744 4.959-5.744 3.14 0 4.959 1.074 4.959 5.744v2.975h-3.967v-3.43c0-1.364-.289-1.736-.992-1.736-.703 0-.992.372-.992 1.736v13.058c0 1.322.248 1.694.992 1.694s.992-.372.992-1.694v-3.554h3.967v3.1zM87.326 30.015c-.62.868-1.612 1.653-3.017 1.653-2.066 0-3.182-1.24-3.182-4.05v-4.587c0-3.636 2.231-5.248 5.95-4.752v-4.628c0-1.694-.248-2.066-.992-2.066s-.992.372-.992 2.066v2.893H81.21v-2.893c0-4.215 1.529-5.62 4.917-5.62 3.595 0 4.917 1.612 4.917 5.868v17.52h-3.347c-.123-.33-.247-.867-.371-1.404zm-.248-2.108V20.8c-1.488.041-1.983.496-1.983 1.983v3.595c0 1.074.165 1.694.992 1.694.33.001.66-.041.991-.165zM99.02 30.18c-.62.826-1.57 1.488-3.14 1.488-1.86 0-3.099-1.157-3.099-3.76v-15.95c0-2.81 1.198-3.926 3.099-3.926 1.322 0 2.19.455 2.851 1.116V1.916h3.967V31.42h-3.347l-.331-1.24zm-.289-2.314V11.833c-.289-.124-.62-.248-.992-.248-.703 0-.992.455-.992 1.281V26.75c0 .909.248 1.322.992 1.322.372.042.703-.082.992-.206zM109.393 31.668c-3.099 0-4.959-1.116-4.959-5.744V13.775c0-4.669 1.86-5.744 4.959-5.744 3.14 0 4.959 1.074 4.959 5.744v7.149h-5.95v5.454c0 1.322.248 1.694.992 1.694s.992-.372.992-1.694v-3.967h3.967v3.512c-.002 4.629-1.82 5.745-4.96 5.745zm-.992-13.347h1.983v-5c0-1.364-.289-1.736-.992-1.736-.703 0-.992.372-.992 1.736v5zM120.054 11.833V31.42h-3.967V8.28h3.347c.083.289.207.744.289 1.24.661-.826 1.694-1.488 3.182-1.488 1.24 0 2.19.496 2.686 1.612.661-.909 1.694-1.612 3.265-1.612 1.859 0 3.099 1.116 3.099 3.76V31.42h-3.967V12.949c0-.95-.289-1.364-.992-1.364-.372 0-.703.083-.992.248V31.42h-3.967V12.949c0-.95-.248-1.364-.992-1.364-.371 0-.702.124-.991.248zM134.352 36.833v-3.14c1.777-.041 2.81-.578 2.851-2.273h-1.736l-2.686-23.14h3.967l1.488 19.504 1.446-19.504h3.843l-2.851 23.14c-.578 4.38-2.81 5.454-6.322 5.413z"/></g><path fill="#FFF" d="M10.939 1.166H3.683A3.212 3.212 0 0 0 .475 4.374v24.572a3.213 3.213 0 0 0 3.208 3.212h7.252a3.22 3.22 0 0 0 3.215-3.212V4.374a3.215 3.215 0 0 0-3.211-3.208"/><g fill="#C8102E"><path d="M9.139 6.847l.008.105c.221.129.333.234.556.378.592.372 1.321 1.034 1.229 3.316.166.498.239 1.475.393 1.789.308.611.514 1.009.604 1.586 0 0 .089.898.205.963.612.138.435.198.525.303.095.123.448.117.448.446.123.164.213.335.282.512V4.374c0-1.353-1.1-2.451-2.449-2.451H8.595c.377.134.589.292.713.543.303.025.663.703.102 1.706.248.165.055.412-.124.699-.052.092-.109.255-.275.245-.213.448-.47.882-.664.909-.059.073-.102.265-.013.356.285.128.633.303.805.466M13.389 17.853a2.184 2.184 0 0 1-2.035 1.377 2.184 2.184 0 0 1-2.187-2.185c0-1.031.709-1.896 1.671-2.127-.252-.631-.784-1.653-.942-1.988-.15-.333-.51-2.412-.588-2.823-.018-.09-.943.537-.945.576-.054.053-.694 1.725-.721 1.815-.013.057-.015.28-.015.28s.315.039.496.588c.179.549.726 2.551.726 2.551s-.148.153-.154.144c.691 2.312.449 3.307.759 3.985.39.956.495.83.829 1.633.24.585.507 2.887.596 2.989.373.473.574.842.574 1.109 0 .268-.316 1.061-.201 1.523.07.272.106.881.233.996 0 0 .116.229.059.33-.016.035-.049.088-.035.13.206.726.869 1.964-.206 2.612h.023a2.437 2.437 0 0 0 2.062-2.424V17.853z"/></g><path fill="#1D428A" d="M10.627 28.475c-.394-.352-.131-.5-.147-.639-.26-1.073-1.112-1.723-.671-2.077-.109-.354-.33-.8-.322-.799-1.329-.763-2.46-2.002-2.652-2.184-.233-.253-.63-.508-.705-.713-.319-.293-1.885-2.515-2.25-3.333l-.636-.09c-.289-1.181-1.254-2.171-1.278-3.355-.009-.448.203-1.407.282-1.598.077-.194.447-.513.447-.513v-.317c-1.386.039-.988-.102-1.227-.641-.168-.373-.048-.455.013-.714.186-.764.804-1.943 1.06-2.478.078-.27.345-.922.345-.922 1.033-2.104 1.419-1.95 2.647-2.068l.06-.087c1.23-.053 1.028-.146 1.202-1.331-.179.077-.232-.371-.232-.371-.098-.674.187-.547.322-.56.029-1.109.142-1.457.942-1.763H3.684a2.453 2.453 0 0 0-2.453 2.453v24.57a2.453 2.453 0 0 0 2.453 2.454h7.255c-.83-.448-.34-1.302-.312-2.924z"/></svg>