<svg xmlns="http://www.w3.org/2000/svg" width="572" height="144" viewBox="0 0 572 144"><g fill="#1D428A"><path d="M84.124 122.021l-13.817.042-.353-117.439 21.383-.064 14.601 96.836c-2.208-23.021-5.115-60.186-5.174-79.758l-.051-17.106 13.816-.042.353 117.439-19.573.059-13.442-94.044c1.216 21.05 2.114 46.213 2.156 60.359l.101 33.718zM138.412 70.868l.109 36.185 2.633-.008c4.934-.015 6.406-2.815 6.389-8.407l-.06-19.902c-.017-5.757-1.833-7.889-7.096-7.874l-1.975.006zm-.155-51.647l.117 38.817 1.975-.006c5.592-.017 7.066-2.16 7.047-8.574l-.067-22.369c-.016-5.428-1.668-7.891-6.438-7.876l-2.634.008zm-15.481 102.684l-.353-117.439 19.573-.059c12.994-.039 21.075 7.009 21.125 23.458l.052 17.27c.032 10.691-3.242 16.129-7.838 18.939 4.614 2.947 7.92 8.2 7.947 17.247l.051 17.106c.048 16.119-8.483 23.382-20.984 23.419l-19.573.059zM183.675 86.358l8.389-.025-1.381-21.543c-.519-8.551-1.916-35.687-2.947-50.322l-.657.002-2.153 50.338-1.251 21.55zm9.251 13.295l-9.869.03-1.249 22.044-15.954.048L177.012 4.302l22.37-.067 11.539 117.405-16.612.05-1.383-22.037z"/></g><path fill="#1D428A" d="M243.514 86.278l8.402-.025-1.382-21.578c-.521-8.565-1.92-35.744-2.952-50.404l-.659.002-2.155 50.419-1.254 21.586zm9.265 13.317l-9.885.03-1.252 22.08-15.981.048 11.18-117.664 22.405-.067 11.557 117.595-16.64.05-1.384-22.072z"/><g fill="#1D428A"><path d="M315.526 99.492c.055 18.435-7.173 22.901-19.683 22.938-12.345.037-19.765-4.385-19.82-22.82l-.146-48.391c-.056-18.599 7.337-22.901 19.683-22.938 12.509-.038 19.764 4.22 19.82 22.82l.036 11.851-15.801.048-.041-13.662c-.016-5.431-1.173-6.91-3.971-6.901-2.798.008-3.946 1.493-3.93 6.925l.156 52.012c.016 5.267 1.008 6.745 3.971 6.736 2.962-.009 3.946-1.493 3.93-6.76l-.043-14.155 15.801-.048.038 12.345zM347.179 115.692c-2.458 3.464-6.399 6.603-11.996 6.62-8.23.025-12.688-4.9-12.722-16.092l-.055-18.27c-.044-14.484 8.825-20.931 23.645-19l-.055-18.435c-.02-6.748-1.013-8.227-3.975-8.218-2.963.009-3.946 1.493-3.926 8.242l.035 11.522-15.472.047-.035-11.522c-.05-16.789 6.023-22.403 19.52-22.444 14.32-.043 19.606 6.361 19.657 23.314l.21 69.789-13.332.04c-.498-1.317-.998-3.455-1.499-5.593zm-1.013-8.392l-.085-28.31c-5.925.183-7.895 1.999-7.877 7.924l.043 14.32c.013 4.28.679 6.746 3.971 6.736 1.317-.004 2.633-.172 3.948-.67zM393.763 116.21c-2.459 3.299-6.237 5.944-12.491 5.963-7.407.022-12.358-4.572-12.39-14.941l-.191-63.534c-.034-11.193 4.726-15.651 12.297-15.674 5.267-.016 8.729 1.784 11.371 4.41l-.087-28.804 15.801-.048.353 117.521-13.332.04-1.331-4.933zm-1.18-9.214l-.192-63.863c-1.154-.491-2.472-.98-3.953-.976-2.798.008-3.945 1.822-3.935 5.114l.166 55.304c.011 3.621 1.003 5.264 3.966 5.255 1.481.161 2.797-.336 3.948-.834zM435.096 122.011c-12.345.037-19.765-4.385-19.82-22.82L415.13 50.8c-.056-18.599 7.338-22.901 19.683-22.938 12.509-.038 19.764 4.22 19.82 22.82l.086 28.475-23.702.071.065 21.727c.016 5.267 1.007 6.745 3.971 6.736 2.962-.009 3.946-1.493 3.93-6.76l-.048-15.801 15.801-.048.042 13.99c.056 18.436-7.173 22.902-19.682 22.939zm-4.11-53.153l7.901-.024-.06-19.916c-.016-5.431-1.174-6.91-3.971-6.901-2.798.008-3.946 1.493-3.929 6.925l.059 19.916zM477.326 42.878l.235 78.018-15.801.048-.277-92.174 13.332-.04c.333 1.151.832 2.96 1.168 4.934 2.624-3.3 6.73-5.946 12.656-5.964 4.938-.015 8.729 1.949 10.718 6.387 2.623-3.629 6.729-6.44 12.984-6.459 7.406-.022 12.358 4.407 12.39 14.941l.235 78.183-15.801.048-.221-73.574c-.011-3.786-1.169-5.428-3.967-5.42-1.482.004-2.797.338-3.947 1l.235 78.018-15.801.048-.221-73.574c-.011-3.786-1.004-5.429-3.967-5.42-1.485.005-2.8.502-3.95 1zM534.577 142.287l-.038-12.509c7.077-.186 11.186-2.338 11.33-9.087l-6.913.021L527.98 28.57l15.801-.048 6.159 77.671 5.527-77.706 15.308-.046-11.08 92.208c-2.252 17.454-11.127 21.76-25.118 21.638z"/></g><path fill="#FFF" d="M42.566 1.693l-28.905.087C6.61 1.801.9 7.554.922 14.596l.294 97.876c.021 7.053 5.765 12.778 12.816 12.757l28.885-.087c7.05-.021 12.789-5.781 12.768-12.834l-.295-97.876c-.021-7.042-5.777-12.76-12.824-12.739"/><g fill="#C8102E"><path d="M35.464 24.346l.032.417c.883.511 1.331.928 2.221 1.498 2.362 1.476 5.274 4.105 4.935 13.194.667 1.98.971 5.874 1.585 7.121 1.235 2.43 2.059 4.012 2.425 6.309 0 0 .365 3.576.827 3.833 2.439.543 1.736.785 2.093 1.201.38.488 1.787.462 1.791 1.773.491.652.853 1.33 1.131 2.035l-.142-47.287c-.016-5.389-4.413-9.751-9.785-9.735l-9.339.028c1.502.528 2.35 1.155 2.847 2.153 1.207.1 2.649 2.798.427 6.798.992.656.223 1.642-.484 2.787-.207.368-.432 1.018-1.093.977-.843 1.786-1.862 3.518-2.635 3.63-.234.29-.402 1.058-.048 1.418 1.137.507 2.524 1.202 3.212 1.85M52.522 68.135a8.7 8.7 0 0 1-8.089 5.511 8.7 8.7 0 0 1-8.736-8.679 8.698 8.698 0 0 1 6.63-8.491c-1.012-2.509-3.143-6.575-3.777-7.909-.6-1.324-2.061-9.601-2.375-11.238-.072-.358-3.751 2.151-3.757 2.305-.215.21-2.746 6.878-2.852 7.238-.051.228-.054 1.117-.054 1.117s1.255.151 1.983 2.337c.721 2.183 2.923 10.154 2.923 10.154s-.588.612-.613.574c2.778 9.201 1.829 13.168 3.072 15.864 1.563 3.802 1.98 3.302 3.32 6.497.962 2.327 2.054 11.494 2.411 11.899 1.491 1.878 2.295 3.347 2.298 4.409.003 1.068-1.245 4.23-.781 6.068.281 1.081.434 3.507.939 3.966 0 0 .465.909.239 1.314-.065.14-.196.352-.136.518.828 2.89 3.486 7.813-.788 10.408h.092c4.671-.737 8.199-4.757 8.184-9.68l-.133-44.182z"/></g><path fill="#1D428A" d="M41.651 110.475c-1.574-1.396-.527-1.991-.592-2.544-1.048-4.272-4.452-6.848-2.7-8.265-.437-1.411-1.325-3.181-1.293-3.178-5.302-3.023-9.823-7.946-10.591-8.668-.931-1.006-2.515-2.014-2.815-2.833-1.275-1.164-7.54-9.995-9.003-13.249l-2.533-.35c-1.166-4.702-5.023-8.633-5.132-13.35-.041-1.783.791-5.606 1.103-6.369.305-.774 1.775-2.047 1.775-2.047l-.004-1.262c-5.522.174-3.936-.395-4.894-2.54-.673-1.485-.195-1.813.043-2.845.732-3.046 3.18-7.747 4.192-9.884.308-1.077 1.365-3.675 1.365-3.675 4.091-8.394 5.63-7.783 10.517-8.27l.24-.347c4.898-.227 4.095-.594 4.772-5.315-.713.309-.931-1.475-.931-1.475-.398-2.685.736-2.179 1.274-2.234.101-4.416.55-5.807 3.731-7.033l-16.501.05c-5.399.016-9.758 4.406-9.742 9.8l.294 97.87c.016 5.401 4.402 9.763 9.801 9.747l28.9-.087c-3.312-1.777-1.37-5.186-1.276-11.647z"/></svg>